<mxfile host="app.diagrams.net" modified="2023-09-22T10:10:24.862Z" agent="Mozilla/5.0 (Windows NT 10.0; Win64; x64) AppleWebKit/537.36 (KHTML, like Gecko) Chrome/117.0.0.0 Safari/537.36" etag="4W0mMiARwEeQriu-QHNB" version="21.7.5" type="github">
  <diagram name="Страница — 1" id="0JQ686lqPjQ36ibhbS3w">
    <mxGraphModel dx="1897" dy="907" grid="1" gridSize="10" guides="1" tooltips="1" connect="1" arrows="1" fold="1" page="1" pageScale="1" pageWidth="827" pageHeight="1169" math="0" shadow="0">
      <root>
        <mxCell id="0" />
        <mxCell id="1" parent="0" />
        <mxCell id="bqGs3hgugpt45MELi2YD-1" value="&lt;font style=&quot;font-size: 14px;&quot;&gt;Существующие эндпоинты и логика прохождения оплаты&lt;/font&gt;" style="text;html=1;strokeColor=none;fillColor=none;align=center;verticalAlign=middle;whiteSpace=wrap;rounded=0;" vertex="1" parent="1">
          <mxGeometry x="290" y="40" width="280" height="30" as="geometry" />
        </mxCell>
        <mxCell id="bqGs3hgugpt45MELi2YD-5" value="Инициализирущий платеж.&amp;nbsp; Отправляется клиентом на&amp;nbsp;endpoint: /payment/webpay/" style="swimlane;fontStyle=0;childLayout=stackLayout;horizontal=1;startSize=30;horizontalStack=0;resizeParent=1;resizeParentMax=0;resizeLast=0;collapsible=1;marginBottom=0;whiteSpace=wrap;html=1;" vertex="1" parent="1">
          <mxGeometry x="300" y="100" width="270" height="130" as="geometry" />
        </mxCell>
        <mxCell id="bqGs3hgugpt45MELi2YD-7" value="&lt;div&gt;{&lt;/div&gt;&lt;div&gt;wsb_test&lt;span style=&quot;white-space: pre;&quot;&gt;&amp;nbsp;&amp;nbsp;&amp;nbsp;&amp;nbsp;&lt;/span&gt;integer&lt;/div&gt;&lt;div&gt;wsb_return_url*&lt;span style=&quot;&quot;&gt;&lt;span style=&quot;white-space: pre;&quot;&gt;&amp;nbsp;&amp;nbsp;&amp;nbsp;&amp;nbsp;&lt;/span&gt;&lt;/span&gt;string&lt;/div&gt;&lt;div&gt;wsb_cancel_return_url*&lt;span style=&quot;&quot;&gt;&lt;span style=&quot;white-space: pre;&quot;&gt;&amp;nbsp;&amp;nbsp;&amp;nbsp;&amp;nbsp;&lt;/span&gt;&lt;/span&gt;string&lt;/div&gt;&lt;div&gt;type&lt;span style=&quot;&quot;&gt;&lt;span style=&quot;white-space: pre;&quot;&gt;&amp;nbsp;&amp;nbsp;&amp;nbsp;&amp;nbsp;&lt;/span&gt;&lt;/span&gt;string&lt;/div&gt;&lt;div&gt;}&lt;/div&gt;" style="text;strokeColor=none;fillColor=none;align=left;verticalAlign=middle;spacingLeft=4;spacingRight=4;overflow=hidden;points=[[0,0.5],[1,0.5]];portConstraint=eastwest;rotatable=0;whiteSpace=wrap;html=1;" vertex="1" parent="bqGs3hgugpt45MELi2YD-5">
          <mxGeometry y="30" width="270" height="100" as="geometry" />
        </mxCell>
        <mxCell id="bqGs3hgugpt45MELi2YD-9" value="" style="endArrow=classic;html=1;rounded=0;exitX=0.456;exitY=0.997;exitDx=0;exitDy=0;exitPerimeter=0;" edge="1" parent="1" source="bqGs3hgugpt45MELi2YD-7">
          <mxGeometry width="50" height="50" relative="1" as="geometry">
            <mxPoint x="530" y="140" as="sourcePoint" />
            <mxPoint x="423" y="320" as="targetPoint" />
          </mxGeometry>
        </mxCell>
        <mxCell id="bqGs3hgugpt45MELi2YD-10" value="Формируется запрос для отправки на web pay" style="swimlane;fontStyle=0;childLayout=stackLayout;horizontal=1;startSize=30;horizontalStack=0;resizeParent=1;resizeParentMax=0;resizeLast=0;collapsible=1;marginBottom=0;whiteSpace=wrap;html=1;" vertex="1" parent="1">
          <mxGeometry x="300" y="320" width="270" height="180" as="geometry" />
        </mxCell>
        <mxCell id="bqGs3hgugpt45MELi2YD-11" value="Вся необходимая информация берется из модели пользователя(телефон, адрес, емаил)." style="text;strokeColor=none;fillColor=none;align=left;verticalAlign=middle;spacingLeft=4;spacingRight=4;overflow=hidden;points=[[0,0.5],[1,0.5]];portConstraint=eastwest;rotatable=0;whiteSpace=wrap;html=1;" vertex="1" parent="bqGs3hgugpt45MELi2YD-10">
          <mxGeometry y="30" width="270" height="60" as="geometry" />
        </mxCell>
        <mxCell id="bqGs3hgugpt45MELi2YD-12" value="Информация о тарифах хранится в функции&amp;nbsp;get_extra_fields, расположенная backend\payment\utils\webpay.py" style="text;strokeColor=none;fillColor=none;align=left;verticalAlign=middle;spacingLeft=4;spacingRight=4;overflow=hidden;points=[[0,0.5],[1,0.5]];portConstraint=eastwest;rotatable=0;whiteSpace=wrap;html=1;" vertex="1" parent="bqGs3hgugpt45MELi2YD-10">
          <mxGeometry y="90" width="270" height="60" as="geometry" />
        </mxCell>
        <mxCell id="bqGs3hgugpt45MELi2YD-13" value="Расчитывается скидка если она есть." style="text;strokeColor=none;fillColor=none;align=left;verticalAlign=middle;spacingLeft=4;spacingRight=4;overflow=hidden;points=[[0,0.5],[1,0.5]];portConstraint=eastwest;rotatable=0;whiteSpace=wrap;html=1;" vertex="1" parent="bqGs3hgugpt45MELi2YD-10">
          <mxGeometry y="150" width="270" height="30" as="geometry" />
        </mxCell>
        <mxCell id="bqGs3hgugpt45MELi2YD-15" style="edgeStyle=orthogonalEdgeStyle;rounded=0;orthogonalLoop=1;jettySize=auto;html=1;entryX=0;entryY=0.5;entryDx=0;entryDy=0;" edge="1" parent="1" source="bqGs3hgugpt45MELi2YD-14" target="bqGs3hgugpt45MELi2YD-11">
          <mxGeometry relative="1" as="geometry" />
        </mxCell>
        <mxCell id="bqGs3hgugpt45MELi2YD-14" value="Model: UserProfile" style="whiteSpace=wrap;html=1;aspect=fixed;" vertex="1" parent="1">
          <mxGeometry x="100" y="320" width="80" height="80" as="geometry" />
        </mxCell>
        <mxCell id="bqGs3hgugpt45MELi2YD-20" style="edgeStyle=orthogonalEdgeStyle;rounded=0;orthogonalLoop=1;jettySize=auto;html=1;entryX=1;entryY=0.5;entryDx=0;entryDy=0;" edge="1" parent="1" source="bqGs3hgugpt45MELi2YD-19" target="bqGs3hgugpt45MELi2YD-12">
          <mxGeometry relative="1" as="geometry" />
        </mxCell>
        <mxCell id="bqGs3hgugpt45MELi2YD-19" value="На текущий момент:&lt;br&gt;&lt;br&gt;вид подписки: - Название, срок в месяцах, стоимость за месяц, общая стоймость&lt;br&gt;&lt;br&gt;&lt;br&gt;&lt;div&gt;&#39;monthly&#39;: - [&#39;Абонентская плата&#39;], [1], [Decimal(&#39;45.00&#39;)], Decimal(&#39;45.00&#39;)&lt;/div&gt;&lt;div&gt;&amp;nbsp;&#39;quarterly&#39;: - [&#39;Абонентская плата&#39;], [3], [Decimal(&#39;35.00&#39;)], Decimal(&#39;105.00&#39;)&lt;/div&gt;&lt;div&gt;&amp;nbsp;&#39;yearly&#39;: - [&#39;Абонентская плата&#39;], [12], [Decimal(&#39;25.00&#39;)], Decimal(&#39;300.00&#39;)&lt;/div&gt;" style="rounded=0;whiteSpace=wrap;html=1;align=left;" vertex="1" parent="1">
          <mxGeometry x="660" y="320" width="430" height="160" as="geometry" />
        </mxCell>
        <mxCell id="bqGs3hgugpt45MELi2YD-24" style="edgeStyle=orthogonalEdgeStyle;rounded=0;orthogonalLoop=1;jettySize=auto;html=1;entryX=0.499;entryY=1;entryDx=0;entryDy=0;entryPerimeter=0;" edge="1" parent="1" source="bqGs3hgugpt45MELi2YD-21" target="bqGs3hgugpt45MELi2YD-13">
          <mxGeometry relative="1" as="geometry" />
        </mxCell>
        <mxCell id="bqGs3hgugpt45MELi2YD-27" style="edgeStyle=orthogonalEdgeStyle;rounded=0;orthogonalLoop=1;jettySize=auto;html=1;entryX=0.5;entryY=0;entryDx=0;entryDy=0;" edge="1" parent="1" source="bqGs3hgugpt45MELi2YD-21" target="bqGs3hgugpt45MELi2YD-25">
          <mxGeometry relative="1" as="geometry" />
        </mxCell>
        <mxCell id="bqGs3hgugpt45MELi2YD-21" value="если сформированный&lt;br&gt;запрос проходит валидацию" style="rhombus;whiteSpace=wrap;html=1;" vertex="1" parent="1">
          <mxGeometry x="327.5" y="540" width="215" height="100" as="geometry" />
        </mxCell>
        <mxCell id="bqGs3hgugpt45MELi2YD-25" value="Создается запись в базе данных. Model:&amp;nbsp;WebPay" style="rounded=0;whiteSpace=wrap;html=1;" vertex="1" parent="1">
          <mxGeometry x="332.5" y="700" width="205" height="60" as="geometry" />
        </mxCell>
        <mxCell id="bqGs3hgugpt45MELi2YD-28" value="да" style="text;html=1;strokeColor=none;fillColor=none;align=center;verticalAlign=middle;whiteSpace=wrap;rounded=0;rotation=-90;" vertex="1" parent="1">
          <mxGeometry x="390" y="650" width="60" height="30" as="geometry" />
        </mxCell>
        <mxCell id="bqGs3hgugpt45MELi2YD-29" value="сформированный запрос отправляется на&amp;nbsp;WSB_API_URL/payment" style="rounded=0;whiteSpace=wrap;html=1;" vertex="1" parent="1">
          <mxGeometry x="306.25" y="790" width="257.5" height="60" as="geometry" />
        </mxCell>
        <mxCell id="bqGs3hgugpt45MELi2YD-31" value="" style="rounded=0;whiteSpace=wrap;html=1;" vertex="1" parent="1">
          <mxGeometry x="130" y="790" width="120" height="60" as="geometry" />
        </mxCell>
      </root>
    </mxGraphModel>
  </diagram>
</mxfile>
